<svg xmlns="http://www.w3.org/2000/svg" viewBox="0 0 420 80" fill="none" role="img" aria-label="comandinha">
  <!-- Símbolo: comanda digital com sorriso -->
  <g transform="translate(4, 8)">
    <rect x="0" y="0" width="48" height="64" rx="10" fill="#2B2625"/>
    <rect x="6" y="8" width="36" height="48" rx="6" fill="#FFF9F0"/>
    <rect x="12" y="16" width="24" height="3" rx="1.5" fill="#2B2625" opacity="0.85"/>
    <rect x="12" y="24" width="18" height="3" rx="1.5" fill="#2B2625" opacity="0.55"/>
    <rect x="12" y="32" width="21" height="3" rx="1.5" fill="#2B2625" opacity="0.55"/>
    <path d="M14 44 Q24 52 34 44" stroke="#FCC745" stroke-width="3" stroke-linecap="round" fill="none"/>
  </g>

  <!-- Wordmark autoral: comandinha -->
  <g transform="translate(68, 18)" fill="#2B2625">
    <!-- c -->
    <path d="M22 28 C22 14, 8 14, 8 28 C8 42, 22 42, 22 28 C22 24, 20 22, 17 22" stroke="#2B2625" stroke-width="5.5" stroke-linecap="round" fill="none"/>
    <!-- o -->
    <ellipse cx="38" cy="28" rx="10" ry="12" stroke="#2B2625" stroke-width="5.5" fill="none"/>
    <!-- m -->
    <path d="M56 40 V18 M56 18 C56 18 62 18 64 26 C66 18 72 18 72 26 V40" stroke="#2B2625" stroke-width="5.5" stroke-linecap="round" stroke-linejoin="round" fill="none"/>
    <!-- a -->
    <path d="M84 40 V26 C84 20 78 18 74 20 C70 22 70 28 74 30 L84 40 M74 30 C78 32 84 32 84 26" stroke="#2B2625" stroke-width="5.5" stroke-linecap="round" stroke-linejoin="round" fill="none"/>
    <!-- n -->
    <path d="M96 40 V18 L108 40 V18" stroke="#2B2625" stroke-width="5.5" stroke-linecap="round" stroke-linejoin="round" fill="none"/>
    <!-- d -->
    <path d="M120 18 V40 M120 28 C120 18 136 18 136 28 C136 38 120 38 120 28" stroke="#2B2625" stroke-width="5.5" stroke-linecap="round" stroke-linejoin="round" fill="none"/>
    <!-- i stem -->
    <line x1="148" y1="18" x2="148" y2="40" stroke="#2B2625" stroke-width="5.5" stroke-linecap="round"/>
    <!-- i dot (sol MEI) -->
    <circle cx="148" cy="10" r="5" fill="#FCC745"/>
    <!-- n -->
    <path d="M160 40 V18 L172 40 V18" stroke="#2B2625" stroke-width="5.5" stroke-linecap="round" stroke-linejoin="round" fill="none"/>
    <!-- h -->
    <path d="M184 18 V40 M184 28 C184 22 196 22 196 28 V40" stroke="#2B2625" stroke-width="5.5" stroke-linecap="round" stroke-linejoin="round" fill="none"/>
    <!-- a -->
    <path d="M208 40 V26 C208 20 202 18 198 20 C194 22 194 28 198 30 L208 40 M198 30 C202 32 208 32 208 26" stroke="#2B2625" stroke-width="5.5" stroke-linecap="round" stroke-linejoin="round" fill="none"/>
  </g>
</svg>
